<svg xmlns="http://www.w3.org/2000/svg" viewBox="0 0 24 24"><path d="M6.7 5.3 5.5 3.4a.4.4 0 0 1 .7-.45l1.25 1.95A8 8 0 0 1 12 4c1.65 0 3.18.5 4.55 1.3l1.25-1.95a.4.4 0 0 1 .7.45l-1.2 1.9A7.3 7.3 0 0 1 20 11H4a7.3 7.3 0 0 1 2.7-5.7M9 8.2a.85.85 0 1 0 0 1.7.85.85 0 0 0 0-1.7m6 0a.85.85 0 1 0 0 1.7.85.85 0 0 0 0-1.7"/><path d="M4 12h16v6.2a1.6 1.6 0 0 1-1.6 1.6h-.9V22a1 1 0 0 1-2 0v-2.2H8.5V22a1 1 0 0 1-2 0v-2.2h-.9A1.6 1.6 0 0 1 4 18.2z"/><rect x="1" y="12" width="2" height="6" rx="1"/><rect x="21" y="12" width="2" height="6" rx="1"/></svg>
