<svg xmlns="http://www.w3.org/2000/svg" viewBox="0 0 24 24"><path d="M17.05 12.04c-.03-2.6 2.12-3.85 2.22-3.91-1.21-1.77-3.09-2.01-3.76-2.04-1.6-.16-3.12.94-3.93.94-.81 0-2.06-.92-3.39-.89-1.74.03-3.35 1.01-4.25 2.57-1.81 3.14-.46 7.79 1.3 10.34.86 1.25 1.88 2.65 3.22 2.6 1.29-.05 1.78-.83 3.34-.83 1.55 0 2 .83 3.37.81 1.39-.03 2.27-1.27 3.12-2.53.98-1.45 1.39-2.85 1.41-2.92-.03-.01-2.71-1.04-2.74-4.13M14.6 4.3c.71-.87 1.2-2.07 1.07-3.27-1.03.04-2.28.69-3.02 1.55-.66.76-1.24 1.99-1.08 3.16 1.15.09 2.32-.58 3.03-1.44"/></svg>
