<svg xmlns="http://www.w3.org/2000/svg" viewBox="0 0 24 24"><path d="M12 2c-2.3 0-3.7 1.9-3.7 4.4 0 1.6.5 2.5.5 3.8 0 1.2-1 2.3-1.9 3.7-1 1.5-2.2 3.1-2.2 5 0 .9.4 1.4 1 1.6.3 1 1.2 1.5 2.3 1.5.9 0 1.7-.4 2.2-1h3.6c.5.6 1.3 1 2.2 1 1.1 0 2-.5 2.3-1.5.6-.2 1-.7 1-1.6 0-1.9-1.2-3.5-2.2-5-.9-1.4-1.9-2.5-1.9-3.7 0-1.3.5-2.2.5-3.8C15.7 3.9 14.3 2 12 2m-1.5 4.1c.5 0 .9.5.9 1.1s-.4 1.1-.9 1.1-.9-.5-.9-1.1.4-1.1.9-1.1m3 0c.5 0 .9.5.9 1.1s-.4 1.1-.9 1.1-.9-.5-.9-1.1.4-1.1.9-1.1M12 9.3c.9 0 1.9.6 1.9 1.1 0 .3-.5.5-1 .7-.3.2-.6.4-.9.4s-.6-.2-.9-.4c-.5-.2-1-.4-1-.7 0-.5 1-1.1 1.9-1.1"/></svg>
